<?xml version="1.0" encoding="UTF-8" standalone="no"?>
<!-- Created with Inkscape (http://www.inkscape.org/) -->

<svg
   width="793.70081"
   height="1122.5197"
   viewBox="0 0 210 296.99999"
   version="1.1"
   id="svg5"
   xml:space="preserve"
   inkscape:version="1.2 (dc2aedaf03, 2022-05-15)"
   sodipodi:docname="nutils.svg"
   xmlns:inkscape="http://www.inkscape.org/namespaces/inkscape"
   xmlns:sodipodi="http://sodipodi.sourceforge.net/DTD/sodipodi-0.dtd"
   xmlns="http://www.w3.org/2000/svg"
   xmlns:svg="http://www.w3.org/2000/svg"><sodipodi:namedview
     id="namedview7"
     pagecolor="#e0e0e0"
     bordercolor="#000000"
     borderopacity="0.25"
     inkscape:showpageshadow="2"
     inkscape:pageopacity="0"
     inkscape:pagecheckerboard="0"
     inkscape:deskcolor="#d1d1d1"
     inkscape:document-units="mm"
     showgrid="true"
     inkscape:zoom="2.0409673"
     inkscape:cx="162.178"
     inkscape:cy="134.25007"
     inkscape:window-width="1920"
     inkscape:window-height="951"
     inkscape:window-x="1920"
     inkscape:window-y="27"
     inkscape:window-maximized="1"
     inkscape:current-layer="layer1"><inkscape:grid
       type="xygrid"
       id="grid531"
       originx="0"
       originy="0" /></sodipodi:namedview><defs
     id="defs2" /><g
     inkscape:label="Layer 1"
     inkscape:groupmode="layer"
     id="layer1"><g
       id="g813"
       transform="matrix(0.15278646,0,0,0.15278646,21.06642,16.489539)"
       inkscape:export-filename="nubank-48.png"
       inkscape:export-xdpi="96"
       inkscape:export-ydpi="96"><rect
         style="fill:#ffffff;fill-opacity:1;stroke-width:0.264583"
         id="rect795"
         width="83.122551"
         height="83.122551"
         x="29.671865"
         y="-127.29353"
         transform="rotate(90)" /><g
         id="g803"
         transform="translate(0.56236411,1.623428)"><g
           id="g191"
           transform="translate(-174.26989,135.07829)"><path
             d="m 237.11126,-88.441211 c 2.2075,-2.319187 5.13572,-3.673912 8.57582,-3.673912 6.70171,0 11.14501,4.893101 11.9951,12.223303 0.27563,2.380461 0.2731,5.736553 0.27033,9.62379 -5.3e-4,0.398626 -5.3e-4,0.802915 -5.3e-4,1.212254 v 14.562241 h -9.21613 v -10.77069 c 0,0 -0.0188,-9.218179 -0.0751,-10.940997 -0.24734,-7.503438 -4.68943,-12.218223 -11.55038,-12.223289 -2.06999,2.186984 -3.17913,4.860951 -3.3427,8.949525 -0.0225,0.570259 -0.0168,2.59157 -0.009,5.255596 0.004,1.380279 0.008,2.93315 0.009,4.546082 0.007,7.020422 0,15.185339 0,15.185339 h -9.21615 v -16.575968 c 0,-0.567976 -0.0104,-1.140764 -0.0208,-1.715839 -0.0209,-1.156771 -0.042,-2.322446 0.0208,-3.476691 0.10412,-1.92418 0.43699,-3.815744 1.33486,-5.572961 2.05523,-4.025672 6.2664,-6.617652 10.75584,-6.617652 0.15683,0 0.31378,0.0036 0.46904,0.0096 z"
             class="Path-xrtkpd-0 eqfYiR"
             id="path2"
             inkscape:connector-curvature="0"
             style="fill:#820ad1;fill-opacity:1;stroke-width:1.20359"
             inkscape:export-filename="C:\Users\alex\sites\nubank-logo-5.png"
             inkscape:export-xdpi="132.76538"
             inkscape:export-ydpi="132.76538" /><path
             d="m 294.27627,-69.454886 c 0.0627,-1.154242 0.0416,-2.320042 0.0208,-3.476691 -0.0105,-0.575075 -0.0208,-1.147863 -0.0208,-1.715837 v -16.576005 h -9.21602 c 0,0 -0.007,8.164917 0,15.185255 10e-4,1.612932 0.005,3.165684 0.009,4.545962 0.007,2.664145 0.0131,4.685456 -0.009,5.255718 -0.16356,4.088717 -1.27279,6.762612 -3.34273,8.949658 -6.86082,-0.0048 -11.30279,-4.720003 -11.55025,-12.223305 -0.0563,-1.722819 -0.0802,-5.998091 -0.0802,-10.949652 V -91.23046 l -9.20927,0.0084 v 14.562275 c 0,0.409342 -5.3e-4,0.813509 -5.3e-4,1.212257 -0.003,3.887235 -0.005,7.243207 0.27032,9.62379 0.8483,7.330226 5.29159,12.2233 11.9933,12.2233 3.44022,0 6.36844,-1.354759 8.57594,-3.673956 0.15515,0.006 0.31198,0.0096 0.4688,0.0096 4.48939,0 8.70064,-2.591933 10.75589,-6.617581 0.89788,-1.757363 1.23067,-3.648805 1.33478,-5.572985 z"
             class="Path-xrtkpd-0 eqfYiR"
             id="path4"
             inkscape:connector-curvature="0"
             style="fill:#820ad1;fill-opacity:1;stroke-width:1.20359"
             inkscape:export-filename="C:\Users\alex\sites\nubank-logo-5.png"
             inkscape:export-xdpi="132.76538"
             inkscape:export-ydpi="132.76538" /></g><rect
           style="fill:#820ad1;fill-opacity:1;stroke-width:0.265128"
           id="rect245"
           width="69.83799"
           height="12.659617"
           x="50.261955"
           y="83.596642" /><text
           xml:space="preserve"
           style="font-size:11.2889px;fill:#820ad1;fill-opacity:1;stroke-width:0.264583"
           x="86.186295"
           y="93.896034"
           id="text587"><tspan
             sodipodi:role="line"
             id="tspan585"
             style="font-style:normal;font-variant:normal;font-weight:normal;font-stretch:normal;font-size:11.2889px;font-family:'DejaVu Sans';-inkscape-font-specification:'DejaVu Sans';fill:#ffffff;stroke-width:0.264583"
             x="86.186295"
             y="93.896034">UTILS</tspan></text></g></g></g></svg>
